<svg width="180" height="180" viewBox="0 0 180 180" fill="none" xmlns="http://www.w3.org/2000/svg">
  <circle cx="90" cy="90" r="90" fill="#121212"/>
  <path d="M90 170C134.183 170 170 134.183 170 90C170 45.8172 134.183 10 90 10C45.8172 10 10 45.8172 10 90C10 134.183 45.8172 170 90 170Z" stroke="#F5A623" stroke-width="4"/>
  <path d="M57.7747 90.0001C57.7747 72.3908 72.1172 58.123 90 58.123C107.883 58.123 122.225 72.3908 122.225 90.0001C122.225 107.609 107.883 121.877 90 121.877C72.1172 121.877 57.7747 107.609 57.7747 90.0001Z" stroke="white" stroke-width="3"/>
  <g transform="translate(60, 65)">
    <path d="M30 0L37.3205 12.5H22.6795L30 0Z" fill="#F5A623"/>
    <path d="M30 50L22.6795 37.5H37.3205L30 50Z" fill="#F5A623"/>
    <path d="M5 20.0962L17.5 12.7757V27.4167L5 20.0962Z" fill="#F5A623"/>
    <path d="M55 20.0962L42.5 27.4167V12.7757L55 20.0962Z" fill="#F5A623"/>
  </g>
  <path d="M35 35H53L59 50H29L35 35Z" fill="#F5A623"/>
  <path d="M121 35H145L139 50H115L121 35Z" fill="#F5A623"/>
  <path d="M71.0526 129.219C72.5 134.219 90 139.719 90 139.719C90 139.719 107.5 134.219 109 129.219C110.5 124.219 105 119.219 100 122.719C95 126.219 90 129.219 90 129.219C90 129.219 85 126.219 80 122.719C75 119.219 69.6053 124.219 71.0526 129.219Z" fill="#F5A623"/>
  <path d="M55 28C61 19.9999 99 23.9998 125 28" stroke="#F5A623" stroke-width="4" stroke-linecap="round"/>
  <path d="M54 150C60 142 99 145.999 125 150" stroke="#F5A623" stroke-width="4" stroke-linecap="round"/>
  <path d="M76.5518 46.6233L76.3599 46.2563L76.3 45.8333L76.4153 45.435L76.6845 45.108L77.0729 44.892L77.5221 44.824L77.9713 44.912L78.3597 45.128L78.6289 45.455L78.7442 45.8533L78.6843 46.2763L78.4924 46.6433L78.195 46.9153L77.811 47.0553L77.3999 47.0313L77.0492 46.8953L76.8493 46.6573L76.5518 46.6233Z" fill="#F5A623"/>
  <path d="M86.1614 43.7387L85.9694 43.3716L85.9095 42.9486L86.0248 42.5503L86.294 42.2233L86.6825 42.0073L87.1316 41.9393L87.5808 42.0273L87.9693 42.2433L88.2385 42.5703L88.3538 42.9686L88.2938 43.3916L88.1019 43.7587L87.8045 44.0307L87.4205 44.1707L87.0094 44.1467L86.6587 44.0107L86.4588 43.7727L86.1614 43.7387Z" fill="#F5A623"/>
  <path d="M96.4651 43.7387L96.2732 43.3716L96.2132 42.9486L96.3286 42.5503L96.5978 42.2233L96.9862 42.0073L97.4354 41.9393L97.8846 42.0273L98.273 42.2433L98.5422 42.5703L98.6576 42.9686L98.5976 43.3916L98.4057 43.7587L98.1082 44.0307L97.7243 44.1707L97.3132 44.1467L96.9625 44.0107L96.7626 43.7727L96.4651 43.7387Z" fill="#F5A623"/>
  <path d="M106.47 46.6233L106.278 46.2563L106.218 45.8333L106.333 45.435L106.603 45.108L106.991 44.892L107.44 44.824L107.89 44.912L108.278 45.128L108.547 45.455L108.662 45.8533L108.602 46.2763L108.411 46.6433L108.113 46.9153L107.729 47.0553L107.318 47.0313L106.967 46.8953L106.767 46.6573L106.47 46.6233Z" fill="#F5A623"/>
  <path d="M58 75V90L45 90L45 75L58 75Z" fill="#F5A623"/>
  <path d="M133 75V90L120 90L120 75L133 75Z" fill="#F5A623"/>
  <path d="M60 100L70 110H110L120 100V115H60V100Z" fill="#F5A623"/>
  <path fill-rule="evenodd" clip-rule="evenodd" d="M60 60L75 75C75 75 80 90 90 90C100 90 105 75 105 75L120 60V100L111 110H69L60 100V60Z" fill="white"/>
</svg>
